<?xml version="1.0" encoding="utf-8"?>
<!-- Generator: Adobe Illustrator 19.2.1, SVG Export Plug-In . SVG Version: 6.00 Build 0)  -->
<svg version="1.1" xmlns="http://www.w3.org/2000/svg" xmlns:xlink="http://www.w3.org/1999/xlink" x="0px" y="0px"
	 viewBox="0 0 1401.4 351.4" style="enable-background:new 0 0 1401.4 351.4;" xml:space="preserve">
<style type="text/css">
	.st0{display:none;}
	.st1{display:inline;fill:#FFFFFF;stroke:#000000;stroke-miterlimit:10;}
	.st2{display:inline;fill:none;stroke:#000000;stroke-miterlimit:10;}
	.st3{fill:#FEC111;}
	.st4{fill:#FFE081;}
	.st5{fill:#FFD54E;}
	.st6{fill:#FFCB28;}
</style>
<g id="Layer_1" class="st0">
	
		<rect x="52" y="52" transform="matrix(0.7071 -0.7071 0.7071 0.7071 -72.7803 175.7071)" class="st1" width="247.5" height="247.5"/>
	
		<rect x="402" y="52" transform="matrix(0.7071 -0.7071 0.7071 0.7071 29.7324 423.1945)" class="st1" width="247.5" height="247.5"/>
	
		<rect x="752" y="52" transform="matrix(0.7071 -0.7071 0.7071 0.7071 132.245 670.6818)" class="st1" width="247.5" height="247.5"/>
	
		<rect x="1102" y="52" transform="matrix(0.7071 -0.7071 0.7071 0.7071 234.7576 918.1693)" class="st1" width="247.5" height="247.5"/>
	<line class="st2" x1="0.7" y1="175.7" x2="1400.7" y2="175.7"/>
	<line class="st2" x1="175.7" y1="0.7" x2="175.7" y2="350.7"/>
	<line class="st2" x1="525.7" y1="0.7" x2="525.7" y2="350.7"/>
	<line class="st2" x1="875.7" y1="2.2" x2="875.7" y2="352.2"/>
	<line class="st2" x1="1225.7" y1="0.7" x2="1225.7" y2="350.7"/>
	<line class="st2" x1="350.7" y1="0" x2="350.7" y2="177.2"/>
	<line class="st2" x1="1400.7" y1="0" x2="1400.7" y2="177.2"/>
	<line class="st2" x1="1225.7" y1="0.7" x2="1400.7" y2="0"/>
	<line class="st2" x1="1050.7" y1="0" x2="1225.7" y2="175.7"/>
	<line class="st2" x1="1225.7" y1="0.7" x2="1050.7" y2="0"/>
</g>
<g id="Layer_2">
	<polygon class="st3" points="1.4,175.7 176.4,175.7 176.4,350.7 	"/>
	<polygon class="st4" points="350.7,175.7 525.7,175.7 525.7,350.7 	"/>
	<polygon class="st4" points="175.4,1.1 350.4,1.1 350.4,176.1 	"/>
	<polygon class="st3" points="700.7,175.7 875.7,175.7 875.7,350.7 	"/>
	<polygon class="st4" points="1050.7,175.7 1225.7,175.7 1225.7,350.7 	"/>
	<polygon class="st5" points="1050.7,1.1 1225.7,1.1 1225.7,176.1 	"/>
	<polygon class="st3" points="1225.3,1.1 1400.3,1.1 1400.3,176.1 	"/>
	<polygon class="st6" points="175.7,350.7 175.7,175.7 350.7,175.7 	"/>
	<polygon class="st5" points="525.7,350.7 525.7,175.7 700.7,175.7 	"/>
	<polygon class="st5" points="1225.3,350.7 1225.3,175.7 1400.3,175.7 	"/>
	<polygon class="st5" points="350.4,176.1 175.4,176.1 175.4,1.1 	"/>
	<polygon class="st6" points="700.7,176.1 525.7,176.1 525.7,1.1 	"/>
	<polygon class="st5" points="1050.4,176.1 875.4,176.1 875.4,1.1 	"/>
	<polygon class="st6" points="1400.3,176.1 1225.3,176.1 1225.3,1.1 	"/>
	<polygon class="st3" points="525.7,1.1 525.7,176.1 350.7,176.1 	"/>
	<polygon class="st6" points="875.7,1.1 875.7,176.1 700.7,176.1 	"/>
</g>
</svg>
