<?xml version="1.0" encoding="utf-8"?>
<!-- Generator: Adobe Illustrator 16.2.0, SVG Export Plug-In . SVG Version: 6.00 Build 0)  -->
<!DOCTYPE svg PUBLIC "-//W3C//DTD SVG 1.1//EN" "http://www.w3.org/Graphics/SVG/1.1/DTD/svg11.dtd">
<svg version="1.1" id="Layer_1" xmlns="http://www.w3.org/2000/svg" xmlns:xlink="http://www.w3.org/1999/xlink" x="0px" y="0px"
	 width="800px" height="210px" viewBox="0 0 800 210" enable-background="new 0 0 800 210" xml:space="preserve">
<g>
	<path fill="#FEEA39" d="M106.257,2.724v103.637H2.621c0,57.237,46.399,103.637,103.636,103.637
		c57.238,0,103.637-46.399,103.637-103.637c0-29.735,0-103.637,0-103.637S133.76,2.724,106.257,2.724z"/>
	<circle fill="#FEEA39" cx="313.532" cy="106.361" r="103.637"/>
	<path fill="#FEEA39" d="M696.407,2.723c-57.239,0-103.638,0-103.638,0c0,14.308,3.729,27.982,10.178,40.447
		c-18.949-24.596-48.69-40.447-82.141-40.447c-57.237,0-103.638,46.4-103.638,103.638c0,57.237,46.4,103.639,103.638,103.639
		V106.361h103.637c0-17.154-4.17-33.332-11.548-47.583c19.814,25.886,51.651,44.074,83.512,47.583v103.637
		c57.237,0,103.637-46.399,103.637-103.639V2.723L696.407,2.723z"/>
</g>
</svg>
